<svg width="32" height="21" viewBox="0 0 32 21" fill="none" xmlns="http://www.w3.org/2000/svg">
<path d="M0.99841 16.7111C0.855339 16.4223 0.664578 15.9609 0.546754 15.6192C-0.140549 13.6185 -0.171407 11.5473 0.406488 9.56073C1.0433 7.38038 2.2608 5.7143 3.83459 4.86189C5.81234 3.79461 7.99768 4.00243 9.89408 5.4149C11.0976 6.2814 11.9504 7.6199 12.5984 9.51494C12.6798 9.75798 12.7527 10.0151 12.8256 10.237L0.99841 16.7111ZM4.9483 8.07781C3.54284 8.83512 2.81906 10.4906 2.97055 12.4279L8.91783 9.21201C7.89389 7.70444 6.56417 7.20426 4.9483 8.07781ZM9.65843 15.0732C9.65563 15.0732 9.65563 15.0768 9.65563 15.0768L9.53219 14.9711C9.17592 15.6932 8.62327 16.2814 7.92475 16.6618C6.59502 17.3874 5.36349 17.2007 4.47701 16.225L4.39565 16.38C4.39565 16.38 4.39565 16.3765 4.39285 16.3765L2.88358 19.212C3.2595 19.5396 3.66066 19.8143 4.08146 20.0362C5.74782 20.9063 7.45345 20.864 9.13384 19.9482C10.3485 19.286 11.3024 18.2786 11.9532 17L9.65843 15.0732ZM16.9579 0.691406V16.4505L18.9104 17.4438L17.8023 20.6914L15.6478 19.5642C15.1653 19.3001 14.8342 18.8985 14.5874 18.4441C14.3489 17.9827 14.1722 17.3452 14.1722 16.4927V0.691406H16.9579ZM22.0131 12.4385C22.0131 11.0965 22.4872 9.89183 23.2334 9.07464L21.2304 6.27084C19.8726 7.77841 19.017 9.97989 19.017 12.4315C19.0142 14.8865 19.8698 17.0915 21.2248 18.5991L23.225 15.7953C22.4816 14.9746 22.0131 13.777 22.0131 12.4385ZM25.5702 16.9084C25.1775 16.9084 24.7959 16.8238 24.4425 16.6759L23.4859 20.2441C24.1395 20.5188 24.838 20.6703 25.5674 20.6703C28.7374 20.6738 31.3828 17.8489 31.9972 14.0975L29.0572 13.3437C28.7234 15.3832 27.2899 16.9119 25.5702 16.9084ZM25.5786 4.20673C24.852 4.20673 24.1535 4.35467 23.4999 4.62589L24.4481 8.19757C24.8044 8.04963 25.1831 7.96862 25.5758 7.96862C27.2983 7.97214 28.7346 9.50789 29.06 11.5509L32 10.8041C31.3969 7.04576 28.7514 4.21025 25.5786 4.20673Z" fill="white"/>
</svg>
